<svg width="186" height="186" viewBox="0 0 186 186" fill="none" xmlns="http://www.w3.org/2000/svg">
<path d="M185.53 93.0005C185.53 68.3981 175.757 44.8035 158.361 27.407C140.964 10.0105 117.369 0.237307 92.7671 0.237305C68.1648 0.237303 44.5701 10.0105 27.1736 27.407C9.77715 44.8035 0.00390996 68.3981 0.00390625 93.0005L14.6331 93.0005C14.6331 72.278 22.865 52.4043 37.518 37.7514C52.171 23.0984 72.0446 14.8665 92.7671 14.8665C113.489 14.8665 133.363 23.0984 148.016 37.7514C162.669 52.4044 170.901 72.278 170.901 93.0005H185.53Z" fill="white"/>
<path d="M127.553 7.00647C105.329 -1.98325 80.4881 -2.02024 58.2377 6.90325L63.6832 20.4812C82.4245 12.9649 103.348 12.9961 122.067 20.5681L127.553 7.00647Z" fill="#FF8F51"/>
<path d="M57.0803 7.37652C40.3359 14.3553 26.0052 26.0906 15.8615 41.13L27.9899 49.3102C36.5338 36.6426 48.6045 26.758 62.7083 20.8798L57.0803 7.37652Z" fill="#F9CF66"/>
<path d="M128.998 7.60676C145.449 14.5869 159.532 26.1699 169.557 40.9632L157.446 49.1697C149.003 36.7094 137.14 26.9531 123.284 21.0737L128.998 7.60676Z" fill="#ED5A39"/>
<path d="M0.235397 93.0005C0.235397 74.9486 5.50248 57.289 15.391 42.1864L27.6596 50.2194C19.3344 62.9345 14.8999 77.8024 14.8999 93.0005H0.235397Z" fill="#94CD4C"/>
<path d="M185.765 93.0005C185.765 74.8234 180.424 57.0468 170.407 41.8791L158.17 49.9607C166.604 62.7306 171.1 77.6969 171.1 93.0005H185.765Z" fill="#D11F1F"/>
<path d="M31 81.4624L102.024 88.1857L101.775 78.3066L31 81.4624Z" fill="#303030"/>
<path d="M100.76 91.0694C104.839 86.9904 104.668 80.2062 100.379 75.9165C96.089 71.6269 89.3048 71.4562 85.2257 75.5353C81.1466 79.6144 81.3173 86.3986 85.6069 90.6882C89.8965 94.9778 96.6807 95.1485 100.76 91.0694Z" fill="#303030"/>
<path d="M98.5138 88.8229C101.413 85.9236 101.292 81.1015 98.2428 78.0525C95.1938 75.0035 90.3717 74.8822 87.4724 77.7815C84.573 80.6809 84.6944 85.503 87.7434 88.552C90.7924 91.601 95.6145 91.7223 98.5138 88.8229Z" fill="white"/>
<path d="M96.878 87.1845C98.9175 85.145 98.8322 81.7529 96.6873 79.608C94.5425 77.4632 91.1504 77.3779 89.1109 79.4174C87.0713 81.457 87.1567 84.8491 89.3015 86.9939C91.4463 89.1387 94.8384 89.224 96.878 87.1845Z" fill="#303030"/>
</svg>
