<svg width="186" height="186" viewBox="0 0 186 186" fill="none" xmlns="http://www.w3.org/2000/svg">
<path d="M185.53 93.0005C185.53 68.3981 175.757 44.8035 158.361 27.407C140.964 10.0105 117.369 0.237307 92.7671 0.237305C68.1648 0.237303 44.5701 10.0105 27.1736 27.407C9.77715 44.8035 0.00390996 68.3981 0.00390625 93.0005L14.6331 93.0005C14.6331 72.278 22.865 52.4043 37.518 37.7514C52.171 23.0984 72.0446 14.8665 92.7671 14.8665C113.489 14.8665 133.363 23.0984 148.016 37.7514C162.669 52.4044 170.901 72.278 170.901 93.0005H185.53Z" fill="white"/>
<path d="M127.553 7.00647C105.329 -1.98325 80.4881 -2.02024 58.2377 6.90325L63.6832 20.4812C82.4245 12.9649 103.348 12.9961 122.067 20.5681L127.553 7.00647Z" fill="#FF8F51"/>
<path d="M57.0803 7.37652C40.3359 14.3553 26.0052 26.0906 15.8615 41.13L27.9899 49.3102C36.5338 36.6426 48.6045 26.758 62.7083 20.8798L57.0803 7.37652Z" fill="#F9CF66"/>
<path d="M128.998 7.60676C145.449 14.5869 159.532 26.1699 169.557 40.9632L157.446 49.1697C149.003 36.7094 137.14 26.9531 123.284 21.0737L128.998 7.60676Z" fill="#ED5A39"/>
<path d="M185.53 92.7632C185.53 68.1608 175.757 44.5662 158.361 27.1697C140.964 9.77324 117.369 1.85742e-06 92.7671 0C68.1648 -1.85742e-06 44.5701 9.77323 27.1736 27.1697C9.77715 44.5662 0.00390996 68.1608 0.00390625 92.7631L14.6331 92.7631C14.6331 72.0407 22.865 52.167 37.518 37.5141C52.171 22.8611 72.0446 14.6292 92.7671 14.6292C113.489 14.6292 133.363 22.8611 148.016 37.5141C162.669 52.167 170.901 72.0407 170.901 92.7632H185.53Z" fill="white"/>
<path d="M127.553 6.76917C105.329 -2.22055 80.4881 -2.25755 58.2377 6.66595L63.6832 20.2439C82.4245 12.7276 103.348 12.7588 122.067 20.3308L127.553 6.76917Z" fill="#FF8F51"/>
<path d="M57.0803 7.13922C40.3359 14.118 26.0052 25.8533 15.8615 40.8927L27.9899 49.0729C36.5338 36.4053 48.6045 26.5207 62.7083 20.6425L57.0803 7.13922Z" fill="#F9CF66"/>
<path d="M128.998 7.36946C145.449 14.3496 159.532 25.9326 169.557 40.7258L157.446 48.9324C149.003 36.472 137.14 26.7157 123.284 20.8364L128.998 7.36946Z" fill="#ED5A39"/>
<path d="M0.235397 93.0005C0.235397 74.9486 5.50248 57.289 15.391 42.1864L27.6596 50.2194C19.3344 62.9345 14.8999 77.8024 14.8999 93.0005H0.235397Z" fill="#94CD4C"/>
<path d="M185.765 93.0005C185.765 74.8234 180.424 57.0468 170.407 41.8791L158.17 49.9607C166.604 62.7306 171.1 77.6969 171.1 93.0005H185.765Z" fill="#D11F1F"/>
<path d="M135.145 38.0518L83.5794 87.3527L91.2117 93.6302L135.145 38.0518Z" fill="#303030"/>
<path d="M82.2257 84.5099C82.6403 90.2636 87.8816 94.5745 93.9324 94.1385C99.9831 93.7025 104.552 88.6846 104.137 82.9308C103.723 77.1771 98.4816 72.8662 92.4308 73.3022C86.3801 73.7382 81.8111 78.7561 82.2257 84.5099Z" fill="#303030"/>
<path d="M85.3927 84.282C85.6874 88.3717 89.4128 91.4358 93.7136 91.1259C98.0144 90.816 101.262 87.2494 100.967 83.1597C100.673 79.07 96.9471 76.0059 92.6463 76.3158C88.3455 76.6257 85.098 80.1923 85.3927 84.282Z" fill="white"/>
<path d="M87.7047 84.1172C87.912 86.9941 90.5326 89.1496 93.558 88.9315C96.5834 88.7135 98.8679 86.2046 98.6605 83.3277C98.4532 80.4508 95.8326 78.2954 92.8072 78.5134C89.7818 78.7314 87.4973 81.2403 87.7047 84.1172Z" fill="#303030"/>
</svg>
