<svg width="186" height="186" viewBox="0 0 186 186" fill="none" xmlns="http://www.w3.org/2000/svg">
<path d="M185.53 93.0005C185.53 68.3981 175.757 44.8035 158.361 27.407C140.964 10.0105 117.369 0.237307 92.7671 0.237305C68.1648 0.237303 44.5701 10.0105 27.1736 27.407C9.77715 44.8035 0.00390996 68.3981 0.00390625 93.0005L14.6331 93.0005C14.6331 72.278 22.865 52.4043 37.518 37.7514C52.171 23.0984 72.0446 14.8665 92.7671 14.8665C113.489 14.8665 133.363 23.0984 148.016 37.7514C162.669 52.4044 170.901 72.278 170.901 93.0005H185.53Z" fill="white"/>
<path d="M127.553 7.00647C105.329 -1.98325 80.4881 -2.02024 58.2377 6.90325L63.6832 20.4812C82.4245 12.9649 103.348 12.9961 122.067 20.5681L127.553 7.00647Z" fill="#FF8F51"/>
<path d="M57.0803 7.37652C40.3359 14.3553 26.0052 26.0906 15.8615 41.13L27.9899 49.3102C36.5338 36.6426 48.6045 26.758 62.7083 20.8798L57.0803 7.37652Z" fill="#F9CF66"/>
<path d="M128.998 7.60676C145.449 14.5869 159.532 26.1699 169.557 40.9632L157.446 49.1697C149.003 36.7094 137.14 26.9531 123.284 21.0737L128.998 7.60676Z" fill="#ED5A39"/>
<path d="M0.235397 93.0005C0.235397 74.9486 5.50248 57.289 15.391 42.1864L27.6596 50.2194C19.3344 62.9345 14.8999 77.8024 14.8999 93.0005H0.235397Z" fill="#94CD4C"/>
<path d="M185.765 93.0005C185.765 74.8234 180.424 57.0468 170.407 41.8791L158.17 49.9607C166.604 62.7306 171.1 77.6969 171.1 93.0005H185.765Z" fill="#D11F1F"/>
<path d="M48 39.9277L95.4376 93.2121L101.982 85.8077L48 39.9277Z" fill="#303030"/>
<path d="M92.5502 94.4636C98.3151 94.2537 102.809 89.1689 102.589 83.1065C102.368 77.044 97.5156 72.2996 91.7507 72.5095C85.9859 72.7195 81.4915 77.8042 81.7122 83.8667C81.933 89.9291 86.7853 94.6735 92.5502 94.4636Z" fill="#303030"/>
<path d="M92.4368 91.289C96.5344 91.1398 99.7289 87.5256 99.572 83.2165C99.4151 78.9075 95.9661 75.5352 91.8686 75.6844C87.771 75.8336 84.5764 79.4478 84.7333 83.7569C84.8903 88.066 88.3392 91.4382 92.4368 91.289Z" fill="white"/>
<path d="M92.3532 88.9752C95.2357 88.8702 97.4829 86.3279 97.3725 83.2966C97.2621 80.2654 94.8359 77.8932 91.9535 77.9982C89.0711 78.1031 86.8239 80.6455 86.9342 83.6767C87.0446 86.708 89.4708 89.0802 92.3532 88.9752Z" fill="#303030"/>
</svg>
