<svg width="186" height="186" viewBox="0 0 186 186" fill="none" xmlns="http://www.w3.org/2000/svg">
<path d="M185.53 93.0005C185.53 68.3981 175.757 44.8035 158.361 27.407C140.964 10.0105 117.369 0.237307 92.7671 0.237305C68.1648 0.237303 44.5701 10.0105 27.1736 27.407C9.77715 44.8035 0.00390996 68.3981 0.00390625 93.0005L14.6331 93.0005C14.6331 72.278 22.865 52.4043 37.518 37.7514C52.171 23.0984 72.0446 14.8665 92.7671 14.8665C113.489 14.8665 133.363 23.0984 148.016 37.7514C162.669 52.4044 170.901 72.278 170.901 93.0005H185.53Z" fill="white"/>
<path d="M127.553 7.00647C105.329 -1.98325 80.4881 -2.02024 58.2377 6.90325L63.6832 20.4812C82.4245 12.9649 103.348 12.9961 122.067 20.5681L127.553 7.00647Z" fill="#FF8F51"/>
<path d="M57.0803 7.37652C40.3359 14.3553 26.0052 26.0906 15.8615 41.13L27.9899 49.3102C36.5338 36.6426 48.6045 26.758 62.7083 20.8798L57.0803 7.37652Z" fill="#F9CF66"/>
<path d="M128.998 7.60676C145.449 14.5869 159.532 26.1699 169.557 40.9632L157.446 49.1697C149.003 36.7094 137.14 26.9531 123.284 21.0737L128.998 7.60676Z" fill="#ED5A39"/>
<path d="M185.53 92.7632C185.53 68.1608 175.757 44.5662 158.361 27.1697C140.964 9.77324 117.369 1.85742e-06 92.7671 0C68.1648 -1.85742e-06 44.5701 9.77323 27.1736 27.1697C9.77715 44.5662 0.00390996 68.1608 0.00390625 92.7631L14.6331 92.7631C14.6331 72.0407 22.865 52.167 37.518 37.5141C52.171 22.8611 72.0446 14.6292 92.7671 14.6292C113.489 14.6292 133.363 22.8611 148.016 37.5141C162.669 52.167 170.901 72.0407 170.901 92.7632H185.53Z" fill="white"/>
<path d="M127.553 6.76917C105.329 -2.22055 80.4881 -2.25755 58.2377 6.66595L63.6832 20.2439C82.4245 12.7276 103.348 12.7588 122.067 20.3308L127.553 6.76917Z" fill="#FF8F51"/>
<path d="M57.0803 7.13922C40.3359 14.118 26.0052 25.8533 15.8615 40.8927L27.9899 49.0729C36.5338 36.4053 48.6045 26.5207 62.7083 20.6425L57.0803 7.13922Z" fill="#F9CF66"/>
<path d="M128.998 7.36946C145.449 14.3496 159.532 25.9326 169.557 40.7258L157.446 48.9324C149.003 36.472 137.14 26.7157 123.284 20.8364L128.998 7.36946Z" fill="#ED5A39"/>
<path d="M0.235397 93.0005C0.235397 74.9486 5.50248 57.289 15.391 42.1864L27.6596 50.2194C19.3344 62.9345 14.8999 77.8024 14.8999 93.0005H0.235397Z" fill="#94CD4C"/>
<path d="M185.765 93.0005C185.765 74.8234 180.424 57.0468 170.407 41.8791L158.17 49.9607C166.604 62.7306 171.1 77.6969 171.1 93.0005H185.765Z" fill="#D11F1F"/>
<path d="M155.145 81.4624L84.121 88.1857L84.3695 78.3066L155.145 81.4624Z" fill="#303030"/>
<path d="M85.3847 91.0694C81.3056 86.9904 81.4763 80.2062 85.7659 75.9165C90.0556 71.6269 96.8398 71.4562 100.919 75.5353C104.998 79.6144 104.827 86.3986 100.538 90.6882C96.248 94.9778 89.4638 95.1485 85.3847 91.0694Z" fill="#303030"/>
<path d="M87.6307 88.8229C84.7314 85.9236 84.8527 81.1015 87.9017 78.0525C90.9507 75.0035 95.7728 74.8822 98.6721 77.7815C101.571 80.6809 101.45 85.503 98.4012 88.552C95.3522 91.601 90.5301 91.7223 87.6307 88.8229Z" fill="white"/>
<path d="M89.2666 87.1845C87.227 85.145 87.3124 81.7529 89.4572 79.608C91.602 77.4632 94.9941 77.3779 97.0336 79.4174C99.0732 81.457 98.9878 84.8491 96.843 86.9939C94.6982 89.1387 91.3061 89.224 89.2666 87.1845Z" fill="#303030"/>
</svg>
